<svg xmlns="http://www.w3.org/2000/svg" xmlns:xlink="http://www.w3.org/1999/xlink" width="829" height="495" viewBox="0 0 829 495">
  <defs>
    <clipPath id="clip-path">
      <rect id="Rectangle_2" data-name="Rectangle 2" width="829" height="495" transform="translate(0 0)" fill="#fff" stroke="#707070" stroke-width="1"/>
    </clipPath>
  </defs>
  <g id="Mask_Group_2" data-name="Mask Group 2" transform="translate(0 0)" clip-path="url(#clip-path)">
    <g id="blob-transparent" transform="translate(314.232 -205.358)">
      <path id="Path_12" data-name="Path 12" d="M559.483,114.292C619,170.172,638.513,247.243,620.352,305.6c-18.168,58.283-73.911,97.789-103.436,126.754-29.626,28.954-32.932,47.377-38.815,68.413s-14.134,44.777-33.272,84.972c-19.037,40.205-48.758,96.884-97.066,110.177C299.348,709.124,232.549,678.969,202.5,635c-29.956-44.032-23.051-101.721-26.773-142.28-3.823-40.57-18.262-63.864-58.084-105.057S12.516,287.438,25.436,266.727s103.859-3.127,162.874-43c58.914-39.887,85.905-137.235,149.066-168.576,63.155-31.414,162.688,3.275,222.107,59.144" transform="translate(0 546.464) rotate(-69)" fill="#78e0dc"/>
    </g>
  </g>
</svg>
