<svg xmlns="http://www.w3.org/2000/svg" xmlns:xlink="http://www.w3.org/1999/xlink" width="829" height="661" viewBox="0 0 829 661">
  <defs>
    <clipPath id="clip-path">
      <rect id="Rectangle_20" data-name="Rectangle 20" width="829" height="661" transform="translate(668 2023)" fill="#fff" stroke="#707070" stroke-width="1"/>
    </clipPath>
  </defs>
  <g id="Mask_Group_5" data-name="Mask Group 5" transform="translate(-668 -2023)" clip-path="url(#clip-path)">
    <g id="blob-transparent" transform="translate(858.229 2368.792)">
      <path id="Path_11" data-name="Path 11" d="M493.627-331.365c70.651,51.608,87.214,129.81,57.194,192.718C520.8-75.814,444.326-28.35,402.919,5.176,361.382,38.7,355.042,58.29,345.078,80.892s-23.292,48.293-52.536,92.366c-29.115,44.074-73.886,106.53-137.809,125.817-64.052,19.212-147-4.746-180.9-47.238C-59.938,209.271-44.539,148.321-44.8,106.432c-.388-41.889-16.434-64.566-63.276-103.064s-124.61-92.743-105.589-115.8S-79.089-127.346,1.656-175.563c80.615-48.217,126.422-152.788,211.566-192.568,85.144-39.855,209.884-14.842,280.406,36.766" transform="translate(-115.118 -77.076) rotate(111)" fill="#78e0dc"/>
    </g>
  </g>
</svg>
