<svg xmlns="http://www.w3.org/2000/svg" xmlns:xlink="http://www.w3.org/1999/xlink" width="829" height="661" viewBox="0 0 829 661">
  <defs>
    <clipPath id="clip-path">
      <rect id="Rectangle_2" data-name="Rectangle 2" width="829" height="661" fill="#fff" stroke="#707070" stroke-width="1"/>
    </clipPath>
  </defs>
  <g id="Mask_Group_2" data-name="Mask Group 2" clip-path="url(#clip-path)">
    <g id="blob-transparent" transform="translate(314.232 -274.244)">
      <path id="Path_12" data-name="Path 12" d="M710.228,56.426c70.651,51.608,87.214,129.81,57.194,192.718-30.02,62.833-106.495,110.3-147.9,143.823-41.537,33.526-47.877,53.114-57.841,75.716s-23.292,48.293-52.536,92.366c-29.115,44.074-73.886,106.53-137.809,125.817-64.052,19.212-147-4.746-180.9-47.238-33.773-42.567-18.374-103.516-18.633-145.405-.388-41.889-16.434-64.566-63.276-103.064s-124.61-92.743-105.589-115.8,134.574-14.917,215.318-63.134C298.872,164.011,344.679,59.44,429.822,19.66,514.966-20.194,639.706,4.818,710.228,56.426" transform="translate(0 729.77) rotate(-69)" fill="#78e0dc"/>
    </g>
  </g>
</svg>
